HIERARCHY
ROOT Hips
{
  OFFSET 90.7885 88.945 -76.2838
  CHANNELS 6 Xposition Yposition Zposition Zrotation Xrotation Yrotation
  JOINT LeftUpLeg
  {
    OFFSET 8.64259 1.95398 -2.38835
    CHANNELS 3 Zrotation Xrotation Yrotation
    JOINT LeftLeg
    {
      OFFSET 43.7702 0 0
      CHANNELS 3 Zrotation Xrotation Yrotation
      JOINT LeftFoot
      {
        OFFSET 40.6238 0 0
        CHANNELS 3 Zrotation Xrotation Yrotation
        JOINT LeftToeBase
        {
          OFFSET 12.7242 0 0
          CHANNELS 3 Zrotation Xrotation Yrotation
          End Site
          {
            OFFSET 0 0 0
          }
        }
      }
    }
  }
  JOINT RightUpLeg
  {
    OFFSET -8.2249 1.95398 -2.59336
    CHANNELS 3 Zrotation Xrotation Yrotation
    JOINT RightLeg
    {
      OFFSET 43.5653 0 0
      CHANNELS 3 Zrotation Xrotation Yrotation
      JOINT RightFoot
      {
        OFFSET 40.6238 0 0
        CHANNELS 3 Zrotation Xrotation Yrotation
        JOINT RightToeBase
        {
          OFFSET 12.7242 0 0
          CHANNELS 3 Zrotation Xrotation Yrotation
          End Site
          {
            OFFSET 0 0 0
          }
        }
      }
    }
  }
  JOINT Spine
  {
    OFFSET 0.165834 0.87714 6.61349
    CHANNELS 3 Zrotation Xrotation Yrotation
    JOINT Spine1
    {
      OFFSET 7.38963 1.71661e-005 0
      CHANNELS 3 Zrotation Xrotation Yrotation
      JOINT Spine2
      {
        OFFSET 11.9445 1.14441e-005 0
        CHANNELS 3 Zrotation Xrotation Yrotation
        JOINT Spine3
        {
          OFFSET 14.7254 4.19617e-005 0
          CHANNELS 3 Zrotation Xrotation Yrotation
          JOINT Spine4
          {
            OFFSET 10.9679 0 0
            CHANNELS 3 Zrotation Xrotation Yrotation
            JOINT RightShoulder
            {
              OFFSET 2.46616 -1.6653 3.69651
              CHANNELS 3 Zrotation Xrotation Yrotation
              JOINT RightArm
              {
                OFFSET 13.0012 0 0
                CHANNELS 3 Zrotation Xrotation Yrotation
                JOINT RightForeArm
                {
                  OFFSET 28.7848 1.52588e-005 0
                  CHANNELS 3 Zrotation Xrotation Yrotation
                  JOINT RightHand
                  {
                    OFFSET 26.5688 1.52588e-005 0
                    CHANNELS 3 Zrotation Xrotation Yrotation
                    End Site
                    {
                      OFFSET 0 0 0
                    }
                  }
                }
              }
            }
            JOINT LeftShoulder
            {
              OFFSET 2.38034 -1.29275 -3.7523
              CHANNELS 3 Zrotation Xrotation Yrotation
              JOINT LeftArm
              {
                OFFSET 16.3182 6.10352e-005 0
                CHANNELS 3 Zrotation Xrotation Yrotation
                JOINT LeftForeArm
                {
                  OFFSET 27.0901 0 0
                  CHANNELS 3 Zrotation Xrotation Yrotation
                  JOINT LeftHand
                  {
                    OFFSET 24.5451 1.52588e-005 0
                    CHANNELS 3 Zrotation Xrotation Yrotation
                    End Site
                    {
                      OFFSET 0 0 0
                    }
                  }
                }
              }
            }
            JOINT Neck
            {
              OFFSET 5.0226 -0.0266342 0
              CHANNELS 3 Zrotation Xrotation Yrotation
              JOINT Head
              {
                OFFSET 6.69363 2.86102e-005 0
                CHANNELS 3 Zrotation Xrotation Yrotation
                End Site
                {
                  OFFSET 0 0 0
                }
              }
            }
          }
        }
      }
    }
  }
}
MOTION
Frames:	13
Frame Time:	0.0416667
-29.2985 97.9924 63.9343 100.492 32.1062 84.4911 -175.553 4.50626 90.7492 -25.1949 5.20291 -2.33084 73.6555 5.83697 1.12556 14.8368 -1.16428 3.47898 175.026 7.9488 88.7164 -24.6521 -19.505 -3.45105 66.0112 -3.82566 -0.447098 24.4979 -0.0169732 0.969415 -0.74516 7.65536 -90.271 11.5613 -1.60915 -0.374146 -0.10864 -1.62407 -0.302953 -22.65 -1.42229 -0.840544 -2.63733 -1.4223 -0.840555 93.8531 -29.3372 -99.2245 45.8075 -4.50313 12.2803 4.97267 -13.9753 -11.9639 -21.6043 0.30207 -10.7197 -83.8009 -46.8997 87.6997 -29.3695 -12.655 -24.3005 23.967 10.8637 -38.6178 4.24156 -0.361543 -9.07706 -27.8382 1.48755 -1.49337 -9.27243 1.03108 5.59023 
-27.2035 98.457 63.1696 98.9096 33.8179 85.561 -175.669 3.68897 91.2185 -23.0306 5.9806 -1.62959 73.7058 6.17654 0.115616 14.219 -1.15908 3.54155 173.825 6.56738 88.9885 -22.1591 -18.696 -2.87329 66.6405 -3.7337 -0.0998962 23.5348 -0.391495 1.94661 -0.65446 7.62165 -90.343 11.6274 -1.46253 -0.531739 -0.0428025 -1.4845 -0.466848 -22.5821 -1.23511 -0.946744 -2.56941 -1.2351 -0.946746 94.4916 -28.5292 -98.1337 47.1789 -4.44077 12.0237 5.19923 -15.6128 -11.4912 -20.687 0.153829 -10.6205 -83.6113 -48.3054 88.1547 -29.5108 -8.48926 -19.9818 23.2871 11.6041 -37.6088 2.69482 -0.294216 -8.9434 -28.5682 1.20633 -1.20179 -9.06786 0.826935 4.70791 
-25.1861 98.7574 62.5568 97.5866 33.1197 86.2655 -175.616 2.0331 91.4636 -20.4571 5.10871 -1.5497 73.6402 6.38801 0.14038 16.1534 -1.65386 3.92119 173.296 5.50497 89.0665 -20.3849 -19.6965 -2.66528 67.1104 -3.73986 0.193765 23.1633 -0.673913 2.59457 -0.338081 7.63172 -90.3275 11.6084 -0.82598 -0.56704 -0.0624224 -0.850123 -0.530144 -22.5978 -0.617361 -0.789059 -2.58518 -0.61738 -0.789064 94.5105 -28.2671 -98.1599 47.0706 -5.77207 11.7618 4.01202 -17.7845 -15.6463 -22.6056 0.191059 -10.9856 -83.3588 -48.1945 88.5322 -30.4809 -1.2914 -13.5052 16.0457 7.60317 -26.7126 1.54583 -0.210013 -7.87725 -29.2471 1.57832 -1.42638 -8.95664 1.18146 4.73686 
-23.1948 98.8107 62.1726 95.9989 33.2143 87.0573 -175.239 1.69605 91.8981 -19.3713 5.75746 -1.6597 74.6917 7.07259 0.0504261 15.2195 -2.59552 5.09403 173.141 5.40052 89.4819 -19.9356 -20.7403 -2.40058 67.8155 -4.03352 -1.38239 21.5451 -0.60402 2.70823 -0.235112 7.56067 -90.3274 11.7507 -0.621291 -0.587119 0.0797276 -0.646543 -0.559209 -22.455 -0.416142 -0.746699 -2.44233 -0.416143 -0.746705 94.8989 -27.1577 -97.634 46.2444 -5.99026 9.48268 2.11317 -19.0018 -18.467 -23.2578 0.196851 -11.2488 -83.4312 -50.8683 88.6984 -28.9818 7.35856 -6.18008 8.05864 0.081201 -12.02 -2.19144 -0.0953759 -7.43684 -30.7072 1.54654 0.212002 -8.2869 1.45074 3.35347 
-21.6712 98.7508 62.0681 94.5192 32.3212 87.5105 -175.309 1.87916 91.7479 -19.2984 4.45129 -1.53661 75.1686 7.44728 0.02466 16.6271 -2.70636 5.11666 173.095 6.07269 89.5263 -20.4493 -21.9242 -2.31674 68.8465 -4.52445 -2.00807 20.4341 -0.602424 2.87334 -0.0179923 7.59494 -90.2922 11.6831 -0.172754 -0.56426 0.0120465 -0.197405 -0.556118 -22.5221 0.00480038 -0.590091 -2.50947 0.00481317 -0.590095 95.3402 -25.9629 -96.996 44.6792 -6.04582 7.39552 0.280481 -19.0321 -21.588 -25.2589 0.410932 -11.8985 -83.3001 -53.1769 89.1181 -30.6444 9.0451 3.14074 6.00088 -1.23612 -5.06799 -4.47405 -0.0835037 -4.68837 -30.7662 1.5316 1.42343 -7.96312 1.63548 2.71241 
-21.0691 98.3954 62.8511 92.0458 32.7853 88.7662 -175.031 6.53949 92.5304 -24.1342 2.43604 -1.5704 76.8399 7.75017 -2.51711 14.9652 -2.49958 4.98814 173.593 9.20358 90.3119 -22.673 -21.0276 -2.1043 69.8943 -5.00908 -2.63313 19.819 -0.723048 3.1977 0.250721 7.72222 -90.2611 11.4304 0.377086 -0.557889 -0.240623 0.352153 -0.573945 -22.7756 0.527323 -0.418768 -2.76292 0.527312 -0.418773 94.742 -26.5148 -98.1355 40.7165 -5.50435 6.26286 -1.59204 -20.1477 -23.8027 -25.6027 0.193647 -11.0866 -83.2464 -53.8502 89.2593 -31.6742 5.5235 10.7916 6.73272 -2.45651 -5.24387 -7.42545 -0.0421121 -5.18985 -28.1021 1.33378 0.0218266 -7.55063 1.26028 2.68971 
-21.9943 97.2938 64.4066 88.0903 35.2481 90.5205 -175.425 16.3901 91.8458 -33.3153 6.58898 -0.916664 75.7761 7.47422 -1.57188 17.372 -2.8879 5.24348 173.915 16.48 90.7168 -28.7544 -18.3125 -1.72748 71.948 -5.73553 -2.94759 19.5686 -0.618255 3.03189 0.425764 8.00727 -90.2443 10.861 0.734868 -0.555297 -0.809883 0.709715 -0.587112 -23.3464 0.867782 -0.308756 -3.33372 0.867777 -0.308761 93.9682 -26.0171 -99.9443 35.8727 -6.68461 3.58883 0.0936079 -18.5836 -21.0501 -26.1344 0.26751 -10.8312 -83.9065 -52.8703 88.2029 -29.7293 5.33152 9.95118 6.68263 -4.92315 -3.59116 -8.57187 -0.00928569 -5.92847 -21.8728 0.597372 -1.27468 -7.25074 0.462496 1.61196 
-23.8235 96.013 66.545 81.7323 36.2142 93.9613 -176.146 27.7121 91.6495 -38.3666 10.7993 -0.659759 76.0733 7.03229 -3.41828 21.9909 -6.42831 9.55047 174.5 26.0987 91.1811 -33.8232 -16.419 -1.17997 72.7581 -6.2234 -2.96368 19.6112 -0.691114 3.16535 0.615572 8.36235 -90.2094 10.1519 1.13114 -0.511125 -1.51869 1.10755 -0.560427 -24.0577 1.23247 -0.147494 -4.04503 1.23245 -0.147506 92.6798 -25.4407 -102.903 29.2156 -8.05371 -1.81474 2.65264 -17.3655 -16.4671 -26.6539 0.110809 -9.5828 -85.5962 -51.1065 85.4942 -26.04 5.5077 2.62287 7.20133 -3.57247 -2.23178 -4.98465 -0.0845071 -4.63394 -12.9381 -0.52293 -2.62751 -6.6253 -0.486333 0.762174 
-25.8154 94.6269 68.5038 75.3572 35.8397 96.7423 -177.056 37.2484 90.7635 -38.3943 10.3087 -1.15561 73.1907 5.90779 -2.52673 21.8379 -5.40693 8.24889 174.528 35.7202 90.7757 -38.3239 -16.4184 -0.459067 73.3515 -6.66183 -3.06661 18.9444 -0.804679 3.47304 0.683185 8.75949 -90.101 9.35687 1.31706 -0.298344 -2.31347 1.30266 -0.356036 -24.854 1.34581 0.111347 -4.84133 1.34581 0.111352 91.1074 -24.7965 -106.548 21.0517 -8.3454 -9.42567 4.51478 -20.2012 -12.3201 -25.0952 -0.663738 -6.65389 -87.9648 -49.8516 81.7511 -19.2668 8.74361 -9.52654 5.83352 -3.10468 -0.0750762 -2.47972 -0.0883609 -5.44125 -5.02579 -0.706868 -1.5264 -6.32514 -0.553504 -0.275283 
-27.763 92.2331 70.2405 69.9238 34.8868 99.9275 -176.71 46.5953 91.0615 -42.5626 6.45889 -2.02997 75.3086 6.57414 -3.04029 15.0978 -3.25972 5.83193 173.284 45.5218 91.3772 -44.5955 -17.4618 1.14465 75.1472 -7.71797 -3.28585 17.8235 -0.992657 3.97053 0.723481 9.14142 -90.1273 8.59335 1.38735 -0.340187 -3.07692 1.37103 -0.400938 -25.618 1.42543 0.0925808 -5.60537 1.42544 0.0925775 89.8452 -22.0831 -110.551 14.8726 -5.55929 -16.9647 5.27635 -17.8014 -10.1928 -25.496 -0.739313 -5.62004 -89.7568 -47.302 78.5085 -11.2755 10.8432 -25.7461 3.95758 0.293821 0.0304747 1.0874 -0.0809596 -4.20757 1.33703 -0.777075 0.0482493 -6.23112 -0.736988 -0.946907 
-29.4285 88.1686 71.7454 65.3218 34.0187 102.524 -172.793 57.7326 89.8994 -53.3147 10.0528 -3.42812 79.8139 8.07573 -3.20048 13.1743 -4.76963 7.64042 170.781 56.4563 92.9528 -54.7487 -18.479 2.49163 79.1132 -9.83994 -3.25473 16.4095 -1.28174 4.65424 0.709348 9.50691 -90.1073 7.86189 1.36925 -0.285794 -3.80839 1.35534 -0.3458 -26.3493 1.39182 0.139019 -6.33667 1.39183 0.139013 88.9201 -20.7721 -113.313 8.7433 -0.317283 -25.2605 4.24201 -15.4635 -10.1883 -26.7009 -0.498122 -6.25605 -90.5864 -42.1649 75.9389 -4.94366 9.04358 -41.2151 3.62717 1.63797 0.038229 -0.327555 -0.0870204 -4.86769 7.07156 -0.61759 0.31939 -6.58402 -0.646464 -0.648955 
-30.7748 82.8224 72.9046 62.1209 33.3817 105.009 -162.975 68.9342 84.1604 -65.9392 14.9906 -4.27205 83.5694 9.53042 -3.27905 9.815 -4.40635 7.41782 162.579 66.4509 98.8913 -66.2209 -20.9331 4.13583 83.564 -11.9406 -2.16437 14.7301 -1.21303 4.71027 0.822715 9.81432 -90.2205 7.24861 1.54794 -0.506219 -4.42156 1.52414 -0.573882 -26.9641 1.6285 -0.0174735 -6.95145 1.62849 -0.0174897 88.7252 -20.2513 -114.052 5.54683 5.50467 -33.5949 4.4125 -11.0632 -9.2283 -30.0787 0.186413 -8.04279 -91.8561 -38.2762 72.7046 -0.457526 2.80417 -55.3998 4.81272 3.24077 -1.87421 2.18467 -0.240501 -8.1378 9.80952 -1.58277 -0.537462 -5.36745 -1.44003 0.427354 
-31.5606 76.4254 73.3568 61.979 33.0234 105.662 -135.637 76.3124 63.0393 -79.265 22.4976 -4.62049 83.6615 10.2563 -0.480908 11.668 1.24444 1.19202 144.932 72.9231 112.877 -78.7106 -25.209 4.92174 88.6148 -14.6015 -1.88574 12.2247 -2.49747 7.06931 0.893117 10.1762 -90.3488 6.52615 1.63578 -0.745775 -5.14403 1.60139 -0.817059 -27.6871 1.78428 -0.219543 -7.67441 1.78427 -0.219552 87.8183 -17.9022 -117.59 2.79098 8.43022 -38.1841 3.82992 -6.35824 -9.28772 -28.5594 0.250301 -7.47153 -91.5513 -32.351 71.2398 -2.41394 -1.93049 -66.1144 7.17114 4.29211 -4.47474 4.96053 -0.327723 -8.06493 11.1112 -2.04793 -0.477309 -4.17612 -1.89344 0.600502 
